<?xml version="1.0" standalone="no"?>
<!DOCTYPE svg PUBLIC "-//W3C//DTD SVG 20010904//EN"
 "http://www.w3.org/TR/2001/REC-SVG-20010904/DTD/svg10.dtd">
<svg version="1.0" xmlns="http://www.w3.org/2000/svg"
 width="512.000000pt" height="512.000000pt" viewBox="0 0 512.000000 512.000000"
 preserveAspectRatio="xMidYMid meet">

<g transform="translate(0.000000,512.000000) scale(0.100000,-0.100000)"
fill="#000000" stroke="none">
<path d="M1150 5114 c-233 -34 -414 -99 -575 -207 -83 -56 -108 -77 -203 -170
-172 -169 -293 -394 -348 -647 -18 -81 -19 -156 -19 -1530 0 -1374 1 -1449 19
-1530 74 -340 268 -627 551 -817 89 -60 196 -111 310 -148 202 -66 166 -65
1675 -65 1183 0 1376 2 1469 16 353 52 675 256 878 559 60 89 111 196 148 310
66 202 65 166 65 1675 0 1509 1 1473 -65 1675 -152 464 -548 799 -1026 869
-93 14 -283 16 -1480 15 -756 -1 -1385 -3 -1399 -5z m1720 -1282 c162 -35 263
-78 376 -158 135 -96 240 -254 284 -428 28 -110 28 -293 0 -402 -65 -255 -242
-446 -493 -534 -29 -10 -51 -22 -50 -27 1 -6 133 -234 292 -508 160 -274 291
-502 291 -506 0 -5 -157 -9 -349 -9 -267 0 -351 3 -359 12 -5 7 -128 228 -272
491 l-263 477 -78 0 -79 0 0 -490 0 -490 -312 2 -313 3 -3 1285 c-1 707 0
1291 3 1298 4 11 111 13 618 9 570 -4 619 -6 707 -25z"/>
<path d="M2170 3009 l0 -320 258 3 258 3 66 33 c116 57 164 152 156 308 -8
150 -80 244 -213 279 -45 11 -115 15 -292 15 l-233 0 0 -321z"/>
</g>
</svg>
