<?xml version="1.0" standalone="no"?>
<!DOCTYPE svg PUBLIC "-//W3C//DTD SVG 20010904//EN"
 "http://www.w3.org/TR/2001/REC-SVG-20010904/DTD/svg10.dtd">
<svg version="1.0" xmlns="http://www.w3.org/2000/svg"
 width="512.000000pt" height="512.000000pt" viewBox="0 0 512.000000 512.000000"
 preserveAspectRatio="xMidYMid meet">
<metadata>
Created by potrace 1.16, written by Peter Selinger 2001-2019
</metadata>
<g transform="translate(0.000000,512.000000) scale(0.100000,-0.100000)"
fill="#000000" stroke="none">
<path d="M987 4349 c-93 -22 -169 -87 -203 -175 -18 -47 -19 -103 -19 -1614 0
-1515 1 -1567 19 -1614 25 -66 84 -128 149 -157 l52 -24 1575 0 1575 0 52 24
c65 29 124 91 149 157 18 47 19 99 19 1614 0 1515 -1 1567 -19 1614 -25 66
-84 128 -149 157 l-52 24 -1555 2 c-886 0 -1571 -3 -1593 -8z m1848 -882 c124
-39 199 -81 271 -152 106 -104 145 -210 144 -390 0 -180 -41 -295 -144 -400
-33 -34 -87 -77 -118 -95 -32 -17 -58 -34 -58 -36 0 -2 88 -174 195 -381 107
-208 195 -381 195 -385 0 -5 -110 -8 -245 -8 l-245 0 -165 330 -165 330 -125
0 -125 0 0 -330 0 -330 -225 0 -225 0 0 941 0 940 473 -3 472 -4 90 -27z"/>
<path d="M2252 2893 l3 -258 149 -3 c175 -3 246 8 301 46 59 41 88 100 93 193
6 103 -14 164 -73 217 -23 22 -60 45 -81 51 -22 6 -119 11 -217 11 l-177 0 2
-257z"/>
</g>
</svg>
